# 3ds Max Wavefront OBJ Exporter v0.97b - (c)2007 guruware
# File Created: 05.06.2010 18:23:15

mtllib large_lilly_pad.mtl

#
# object Obj_000005
#

v  9.5451 0.9553 -8.5755
v  12.8396 2.3531 -11.6517
v  10.6061 2.3514 -14.0361
v  2.7501 1.8966 21.0454
v  -0.9639 0.4954 19.7633
v  2.8258 0.4939 17.8695
v  2.7348 0.4896 12.4001
v  4.4113 0.4854 6.8910
v  -16.9147 0.9605 -1.8562
v  -16.8998 0.9665 5.7107
v  -14.3870 0.9635 1.9347
v  9.5145 0.4843 5.6203
v  12.5368 0.4873 9.2658
v  4.5136 0.4852 6.7436
v  -8.5644 1.8667 -17.1630
v  -4.7562 0.4691 -14.0287
v  -8.3111 0.4711 -11.5816
v  -11.4502 0.9663 5.6296
v  -11.4759 0.9716 12.4450
v  -8.1818 0.9690 9.1509
v  2.6425 0.4788 -1.6877
v  3.1885 0.4835 4.3241
v  -19.6100 2.3578 -5.6655
v  -18.8085 0.9635 1.9326
v  -20.0911 2.3668 5.8684
v  -20.4878 2.3636 1.7151
v  -20.4878 1.8814 1.7010
v  7.2901 2.3493 -16.7107
v  10.6061 1.8692 -14.0498
v  -4.5737 0.4843 5.5281
v  -0.9652 0.4815 1.9206
v  -0.9197 0.4871 8.9640
v  -4.6607 0.4896 12.4050
v  6.3441 0.4711 -11.5473
v  9.5451 0.4734 -8.5903
v  6.2510 0.4760 -5.2958
v  12.4561 0.9635 1.9347
v  12.5020 0.9577 -5.3753
v  9.5194 0.9605 -1.7603
v  -13.4120 1.8684 -15.1440
v  -11.4759 0.4734 -8.5903
v  -8.2756 0.4920 15.3883
v  -11.4759 0.4896 12.4311
v  -8.1818 0.4871 9.1366
v  7.2901 1.8957 20.1266
v  -1.0118 0.4760 -5.1236
v  2.7298 0.4734 -8.5642
v  2.7298 0.9553 -8.5499
v  6.3441 0.9530 -11.5332
v  2.8104 0.9511 -13.9994
v  -1.4027 2.3473 -19.1204
v  -1.4027 1.8652 -19.1345
v  -5.1185 2.3477 -18.5045
v  -20.0911 2.3608 -2.0006
v  4.0436 0.9671 6.0918
v  4.5136 0.9673 6.7575
v  4.4113 0.9673 6.9053
v  -18.6855 1.8726 -9.6520
v  -14.4677 0.4758 -5.4250
v  -16.9147 0.4785 -1.8706
v  12.8396 1.8923 15.7241
v  16.3167 1.8904 13.2721
v  16.3167 2.3725 13.2864
v  3.6251 2.3477 -18.7235
v  7.2901 1.8671 -16.7255
v  3.6251 1.8656 -18.7376
v  7.2901 2.3779 20.1410
v  14.9839 0.4845 5.7113
v  18.3356 1.8885 10.6125
v  -19.3910 2.3698 9.5326
v  4.0436 0.4852 6.0777
v  -11.8805 2.3777 19.8722
v  -15.8635 1.8938 17.6926
v  -11.8805 1.8955 19.8581
v  16.0977 1.8729 -9.2145
v  12.8396 1.8709 -11.6665
v  3.1885 0.9654 4.3384
v  -0.9659 0.4920 15.3423
v  -15.8635 2.3759 17.7069
v  -18.6855 1.8910 14.1471
v  -11.4454 0.9605 -1.7652
v  -0.9676 0.9483 -17.4396
v  -14.4331 0.4873 9.2304
v  -16.8998 0.4845 5.6966
v  -14.3870 0.4815 1.9206
v  -4.9000 2.3796 22.3725
v  -9.0019 1.8970 21.6581
v  -4.9000 1.8974 22.3579
v  -5.1185 1.8656 -18.5191
v  -8.5644 2.3488 -17.1482
v  18.3356 2.3706 10.6266
v  19.9106 2.3674 6.7434
v  16.8776 0.9635 1.9366
v  -4.6607 0.9716 12.4191
v  -8.2756 0.9740 15.4024
v  -4.7416 0.9759 17.8693
v  -9.0019 2.3792 21.6720
v  -11.4502 0.4843 5.6155
v  -8.0096 0.4815 1.8742
v  12.8396 2.3745 15.7384
v  12.5368 0.9693 9.2806
v  -20.0911 1.8846 5.8536
v  -19.3910 1.8876 9.5185
v  6.0784 0.9635 1.9806
v  6.2510 0.9579 -5.2814
v  2.6425 0.9607 -1.6734
v  18.7731 1.8763 -5.0232
v  19.6921 1.8791 -1.3589
v  16.8776 0.4815 1.9223
v  -18.6855 2.3732 14.1614
v  -4.7416 0.4939 17.8550
v  -14.4331 0.9693 9.2445
v  14.9839 0.9665 5.7253
v  14.9689 0.9605 -1.8415
v  -0.9652 1.8972 21.8799
v  -18.6855 2.3548 -9.6381
v  -11.4454 0.4785 -1.7796
v  2.7501 2.3787 21.0600
v  16.0977 2.3550 -9.2006
v  -8.1818 0.9579 -5.2814
v  -4.6656 0.9553 -8.5450
v  -8.3111 0.9530 -11.5673
v  6.0784 0.4815 1.9665
v  -8.1818 0.4760 -5.2958
v  18.7731 2.3584 -5.0091
v  -14.4677 0.9577 -5.4109
v  2.8104 0.4691 -14.0142
v  -0.9676 0.4664 -17.4541
v  19.6921 2.3612 -1.3442
v  20.0882 2.3644 2.8089
v  20.0882 1.8823 2.7943
v  9.5145 0.9663 5.6347
v  -0.9659 0.9530 -11.4872
v  -4.7562 0.9511 -14.0144
v  -19.6100 1.8756 -5.6796
v  -20.0911 1.8786 -2.0150
v  12.5020 0.4758 -5.3900
v  9.5194 0.4785 -1.7750
v  -11.4759 0.9553 -8.5755
v  -15.6449 2.3523 -12.7457
v  -8.0096 0.9635 1.8883
v  -4.5737 0.9663 5.5426
v  -0.9639 0.9774 19.7774
v  2.8258 0.9759 17.8843
v  19.9106 1.8853 6.7286
v  -0.9652 2.3794 21.8940
v  -13.4120 2.3506 -15.1297
v  -15.6449 1.8701 -12.7600
v  -18.8085 0.4815 1.9187
v  12.4561 0.4815 1.9206
v  -1.0118 0.9579 -5.1095
v  2.7348 0.9716 12.4142
v  -0.9652 0.9635 1.9347
v  -0.9197 0.9690 8.9783
v  14.9689 0.4785 -1.8560
v  -0.9659 0.4711 -11.5013
v  -0.9659 0.9740 15.3564
v  -4.6656 0.4734 -8.5595
# 158 vertices

vn -0.2165 0.9551 0.2021
vn 0.1995 -0.8946 0.3999
vn 0.0000 -1.0000 0.0008
vn 0.0000 1.0000 -0.0008
vn -0.1606 -0.9592 -0.2326
vn -0.0000 -1.0000 0.0008
vn 0.2883 0.9468 0.1433
vn -0.0000 1.0000 -0.0008
vn -0.9955 -0.0028 0.0951
vn 0.6276 0.0221 -0.7782
vn -0.1539 -0.9747 -0.1620
vn 0.2803 -0.9590 0.0412
vn -0.1634 0.0288 -0.9861
vn -0.0002 1.0000 -0.0008
vn 0.0002 -1.0000 0.0001
vn -0.1911 -0.9728 -0.1308
vn 0.5761 -0.0242 0.8170
vn 0.4811 0.0256 -0.8763
vn 0.7374 0.6754 -0.0005
vn 0.1983 -0.0291 0.9797
vn 0.1921 -0.9704 0.1466
vn 0.2984 0.9423 -0.1515
vn 0.4058 0.8953 -0.1837
vn -0.4775 -0.0257 0.8783
vn 0.6011 0.0245 -0.7988
vn -0.0006 1.0000 -0.0004
vn -0.7823 -0.0185 0.6227
vn 0.7295 0.0194 -0.6837
vn -0.0511 0.7610 0.6467
vn -0.1681 -0.0297 0.9853
vn -0.3660 0.0285 -0.9302
vn -0.2689 0.9569 -0.1098
vn -0.5300 -0.0244 0.8476
vn 0.0674 0.9742 -0.2152
vn -0.9822 -0.0055 0.1876
vn 0.7297 0.0209 -0.6835
vn 0.3578 -0.9296 -0.0890
vn -0.9886 -0.0044 0.1507
vn -0.0503 -0.9540 0.2956
vn -0.7373 -0.0200 0.6752
vn -0.2330 0.9654 -0.1172
vn -0.7374 -0.0198 0.6752
vn -0.0004 -1.0000 0.0009
vn 0.1229 -0.8274 0.5480
vn -0.9739 0.0065 -0.2267
vn 0.4812 0.0268 -0.8762
vn 0.1983 -0.0295 0.9797
vn 0.6010 0.0231 -0.7989
vn -0.1778 -0.9761 0.1249
vn -0.1483 -0.9793 0.1377
vn 0.0001 1.0000 -0.0008
vn 0.9742 0.0066 -0.2258
vn -0.2312 0.9618 0.1468
vn 0.1911 0.9728 0.1308
vn -0.5351 0.7557 0.3777
vn -0.4060 -0.8952 0.1837
vn 0.2205 -0.9451 -0.2414
vn -0.5300 -0.0248 0.8477
vn 0.9955 0.0029 -0.0949
vn 0.0787 0.0291 -0.9965
vn 0.0974 0.9788 -0.1800
vn -0.9915 0.0039 -0.1302
vn 0.1679 0.9730 0.1580
vn 0.6124 0.7865 0.0797
vn -0.1994 0.8946 -0.3999
vn 0.9990 -0.0014 0.0451
vn -0.0670 0.8318 -0.5510
vn -0.4344 0.9006 0.0111
vn -0.2489 0.9604 0.1250
vn 0.1539 0.9747 0.1620
vn 0.1820 -0.9573 -0.2248
vn -0.1674 -0.9767 0.1340
vn -0.1131 -0.9513 -0.2867
vn -0.1632 -0.9737 -0.1589
vn 0.2190 -0.0294 0.9753
vn 0.1778 0.9761 -0.1249
vn 0.1483 0.9793 -0.1377
vn -0.1922 0.9704 -0.1466
vn 0.8428 0.0155 -0.5380
vn -0.1029 -0.7774 -0.6205
vn -0.7297 0.0202 -0.6835
vn -0.1460 -0.9459 0.2897
vn -0.1687 -0.9730 -0.1573
vn 0.1420 -0.9556 -0.2580
vn 0.1399 0.9695 -0.2011
vn -0.9822 -0.0057 0.1877
vn -0.3579 0.9295 0.0890
vn -0.3843 0.0273 -0.9228
vn 0.9266 -0.0110 0.3758
vn 0.6278 0.0238 -0.7780
vn 0.1611 0.9713 -0.1751
vn 0.1433 -0.9684 0.2040
vn -0.1264 -0.9710 0.2029
vn 0.0816 -0.9110 0.4043
vn -0.1927 0.9590 0.2077
vn 0.1559 -0.9660 -0.2063
vn -0.3842 0.0283 -0.9228
vn -0.1607 0.9599 0.2295
vn -0.1398 -0.9695 0.2011
vn 0.1132 0.9513 0.2868
vn -0.1611 -0.9713 0.1751
vn 0.1675 0.9767 -0.1340
vn -0.1820 0.9572 0.2249
vn 0.1633 0.9737 0.1589
vn -0.9886 -0.0045 0.1507
vn 0.1926 -0.9590 -0.2078
vn -0.5636 -0.8189 0.1083
vn 0.0504 0.9540 -0.2956
vn 0.1607 -0.9600 -0.2294
vn 0.5349 -0.7560 -0.3774
vn -0.2205 0.9451 0.2414
vn -0.9739 0.0066 -0.2267
vn 0.7964 -0.0177 0.6046
vn -0.1229 0.8273 -0.5481
vn -0.9915 0.0038 -0.1302
vn -0.0000 -1.0000 0.0007
vn -0.7823 -0.0184 0.6226
vn -0.0991 -0.9664 -0.2371
vn -0.3628 -0.9281 -0.0837
vn -0.3661 0.0280 -0.9302
vn -0.1683 -0.0283 0.9853
vn 0.9699 0.0074 -0.2432
vn -0.7146 0.0207 -0.6992
vn 0.2179 -0.9551 -0.2006
vn 0.2156 -0.9649 -0.1498
vn -0.1433 0.9684 -0.2040
vn 0.9266 -0.0115 0.3758
vn 0.1264 0.9710 -0.2030
vn -0.0817 0.9109 -0.4044
vn -0.1558 0.9660 0.2064
vn 0.1206 -0.0290 0.9923
vn -0.2983 -0.9424 0.1515
vn 0.0009 1.0000 -0.0006
vn -0.7374 -0.6755 0.0005
vn 0.8428 0.0157 -0.5380
vn 0.0511 -0.7610 -0.6467
vn 0.4138 0.9081 -0.0637
vn -0.2447 -0.9313 -0.2699
vn 0.2689 -0.9569 0.1098
vn -0.0674 -0.9743 0.2151
vn -0.9943 0.0031 -0.1061
vn 0.2164 -0.9551 -0.2021
vn 0.1460 0.9459 -0.2897
vn 0.1687 0.9730 0.1573
vn -0.9955 -0.0029 0.0951
vn 0.2072 -0.9677 0.1434
vn -0.4137 -0.9082 0.0637
vn -0.2179 0.9551 0.2006
vn -0.0001 -1.0000 0.0008
vn -0.2156 0.9649 0.1498
vn 0.9699 0.0071 -0.2433
vn -0.1633 0.0297 -0.9861
vn 0.1029 0.7775 0.6205
vn 0.9742 0.0067 -0.2258
vn -0.2882 -0.9468 -0.1433
vn -0.1421 0.9556 0.2580
vn 0.5636 0.8189 -0.1083
vn 0.2447 0.9313 0.2699
vn -0.6123 -0.7866 -0.0797
vn -0.1679 -0.9731 -0.1580
vn 0.7964 -0.0179 0.6045
vn 0.0669 -0.8318 0.5510
vn 0.1207 -0.0299 0.9922
vn 0.0991 0.9664 0.2372
vn 0.4343 -0.9007 -0.0110
vn -0.2073 0.9677 -0.1434
vn 0.3628 0.9281 0.0837
vn 0.2489 -0.9604 -0.1250
vn -0.4774 -0.0261 0.8783
vn 0.0001 -1.0000 0.0008
vn 0.1606 0.9592 0.2326
vn 0.2312 -0.9618 -0.1468
vn 0.2330 -0.9654 0.1172
vn -0.2803 0.9590 -0.0412
vn -0.0974 -0.9788 0.1800
vn -0.7147 0.0202 -0.6992
vn 0.2189 -0.0285 0.9753
vn -0.9943 0.0032 -0.1062
# 178 vertex normals

g Obj_000005
usemtl mat5
s 1
f 1//1 2//1 3//1 
f 4//2 5//2 6//2 
f 7//3 8//3 6//3 
f 9//4 10//4 11//4 
f 12//3 13//3 14//3 
f 15//5 16//5 17//5 
f 18//4 19//4 20//4 
f 21//6 12//6 22//6 
f 23//7 24//7 9//7 
f 24//8 10//8 9//8 
f 25//9 26//9 27//9 
f 28//10 3//10 29//10 
f 7//6 30//6 31//6 
f 30//3 32//3 33//3 
f 34//3 35//3 36//3 
f 37//8 38//8 39//8 
f 40//11 17//11 41//11 
f 42//3 43//3 44//3 
f 45//12 6//12 8//12 
f 21//3 46//3 47//3 
f 48//8 49//8 50//8 
f 51//13 52//13 53//13 
f 54//14 26//14 25//14 
f 55//15 56//15 57//15 
f 58//16 59//16 60//16 
f 61//17 62//17 63//17 
f 64//18 65//18 66//18 
f 54//19 25//19 24//19 
f 4//20 45//20 67//20 
f 68//21 69//21 62//21 
f 24//22 70//22 10//22 
f 8//23 71//23 45//23 
f 72//24 73//24 74//24 
f 2//25 75//25 76//25 
f 57//26 56//26 77//26 
f 32//6 7//6 78//6 
f 79//27 80//27 73//27 
f 81//4 11//4 18//4 
f 29//28 3//28 76//28 
f 64//29 51//29 82//29 
f 83//3 84//3 85//3 
f 86//30 87//30 88//30 
f 89//31 15//31 90//31 
f 91//32 92//32 93//32 
f 94//4 95//4 96//4 
f 87//33 97//33 74//33 
f 44//3 98//3 99//3 
f 100//34 101//34 56//34 
f 70//35 102//35 103//35 
f 104//4 105//4 106//4 
f 76//36 3//36 2//36 
f 107//37 108//37 109//37 
f 70//38 103//38 110//38 
f 88//39 87//39 111//39 
f 71//40 61//40 100//40 
f 11//4 112//4 18//4 
f 91//41 93//41 113//41 
f 113//8 93//8 114//8 
f 39//4 1//4 105//4 
f 113//4 114//4 37//4 
f 71//42 100//42 55//42 
f 22//43 14//43 8//43 
f 5//44 4//44 115//44 
f 58//45 23//45 116//45 
f 98//6 85//6 117//6 
f 61//17 63//17 100//17 
f 64//46 28//46 65//46 
f 4//47 67//47 118//47 
f 85//3 60//3 59//3 
f 2//48 119//48 75//48 
f 84//49 83//49 80//49 
f 120//4 121//4 122//4 
f 83//50 43//50 73//50 
f 123//6 21//6 36//6 
f 18//51 112//51 19//51 
f 78//6 6//6 5//6 
f 41//3 124//3 117//3 
f 45//52 71//52 55//52 
f 114//53 125//53 119//53 
f 116//54 9//54 126//54 
f 14//55 61//55 71//55 
f 67//56 55//56 57//56 
f 127//57 128//57 66//57 
f 74//58 97//58 72//58 
f 129//59 130//59 131//59 
f 127//3 34//3 47//3 
f 56//4 132//4 77//4 
f 51//60 66//60 52//60 
f 133//4 82//4 134//4 
f 19//61 79//61 72//61 
f 135//62 136//62 54//62 
f 35//6 137//6 138//6 
f 126//63 139//63 140//63 
f 141//8 20//8 142//8 
f 23//64 54//64 24//64 
f 143//65 118//65 144//65 
f 145//66 130//66 92//66 
f 8//6 7//6 22//6 
f 101//4 113//4 37//4 
f 86//67 146//67 143//67 
f 132//8 37//8 39//8 
f 120//8 122//8 139//8 
f 92//68 129//68 93//68 
f 92//8 130//8 129//8 
f 93//69 125//69 114//69 
f 139//70 122//70 147//70 
f 60//6 85//6 84//6 
f 65//71 29//71 34//71 
f 73//72 80//72 83//72 
f 16//73 15//73 89//73 
f 98//3 44//3 43//3 
f 59//74 58//74 148//74 
f 84//3 149//3 60//3 
f 118//75 115//75 4//75 
f 150//3 138//3 137//3 
f 10//76 110//76 112//76 
f 112//77 79//77 19//77 
f 63//78 91//78 113//78 
f 99//3 30//3 44//3 
f 107//79 75//79 119//79 
f 104//4 39//4 105//4 
f 128//80 89//80 52//80 
f 37//4 114//4 38//4 
f 138//3 150//3 12//3 
f 151//4 133//4 121//4 
f 124//3 41//3 17//3 
f 148//81 140//81 40//81 
f 111//82 5//82 88//82 
f 41//83 148//83 40//83 
f 66//84 65//84 127//84 
f 95//85 97//85 96//85 
f 70//86 25//86 102//86 
f 93//87 129//87 125//87 
f 111//6 42//6 33//6 
f 147//88 15//88 40//88 
f 69//89 92//89 91//89 
f 152//4 153//4 142//4 
f 105//8 1//8 49//8 
f 65//90 28//90 29//90 
f 19//91 72//91 95//91 
f 142//8 94//8 154//8 
f 13//92 62//92 61//92 
f 87//93 74//93 42//93 
f 85//6 98//6 83//6 
f 6//94 45//94 4//94 
f 1//95 3//95 49//95 
f 76//96 75//96 137//96 
f 20//8 19//8 95//8 
f 106//8 48//8 151//8 
f 142//8 120//8 81//8 
f 155//3 109//3 68//3 
f 147//97 90//97 15//97 
f 81//8 139//8 126//8 
f 138//6 36//6 35//6 
f 49//98 28//98 50//98 
f 68//6 150//6 155//6 
f 121//4 134//4 122//4 
f 156//6 16//6 128//6 
f 42//99 111//99 87//99 
f 134//100 53//100 90//100 
f 43//101 42//101 74//101 
f 150//6 68//6 13//6 
f 112//102 110//102 79//102 
f 33//3 78//3 111//3 
f 49//103 3//103 28//103 
f 116//104 126//104 140//104 
f 31//3 22//3 7//3 
f 20//8 94//8 142//8 
f 103//105 80//105 110//105 
f 35//106 34//106 29//106 
f 152//4 157//4 144//4 
f 31//6 124//6 158//6 
f 103//107 102//107 149//107 
f 47//3 156//3 127//3 
f 96//108 97//108 86//108 
f 34//109 127//109 65//109 
f 55//110 100//110 56//110 
f 126//4 11//4 81//4 
f 50//111 64//111 82//111 
f 142//4 153//4 120//4 
f 58//112 135//112 23//112 
f 154//8 94//8 157//8 
f 20//4 95//4 94//4 
f 62//113 69//113 91//113 
f 143//114 146//114 118//114 
f 135//115 54//115 23//115 
f 14//116 22//116 12//116 
f 79//117 110//117 80//117 
f 17//118 40//118 15//118 
f 60//119 135//119 58//119 
f 53//120 89//120 90//120 
f 86//121 97//121 87//121 
f 50//8 82//8 133//8 
f 132//4 39//4 104//4 
f 46//6 158//6 156//6 
f 133//4 134//4 121//4 
f 125//122 129//122 108//122 
f 148//123 116//123 140//123 
f 137//124 35//124 76//124 
f 140//81 147//81 40//81 
f 155//125 137//125 75//125 
f 106//8 105//8 48//8 
f 100//126 63//126 101//126 
f 69//127 145//127 92//127 
f 95//128 72//128 97//128 
f 118//129 67//129 144//129 
f 38//130 119//130 2//130 
f 59//6 117//6 85//6 
f 102//3 27//3 136//3 
f 124//6 31//6 30//6 
f 146//131 88//131 115//131 
f 149//132 84//132 103//132 
f 71//133 8//133 14//133 
f 136//134 149//134 102//134 
f 107//135 119//135 125//135 
f 52//136 66//136 128//136 
f 78//3 33//3 32//3 
f 44//6 33//6 42//6 
f 10//137 70//137 110//137 
f 56//4 101//4 132//4 
f 152//8 144//8 57//8 
f 89//138 128//138 16//138 
f 109//139 145//139 69//139 
f 61//140 14//140 13//140 
f 30//3 117//3 124//3 
f 136//141 27//141 26//141 
f 12//6 123//6 138//6 
f 128//3 127//3 156//3 
f 29//142 76//142 35//142 
f 39//4 38//4 1//4 
f 36//6 138//6 123//6 
f 96//143 86//143 143//143 
f 139//144 147//144 140//144 
f 57//4 77//4 152//4 
f 25//145 27//145 102//145 
f 137//6 155//6 150//6 
f 62//146 13//146 68//146 
f 33//3 44//3 30//3 
f 80//147 103//147 84//147 
f 153//8 106//8 121//8 
f 154//4 157//4 152//4 
f 11//8 10//8 112//8 
f 17//6 158//6 124//6 
f 141//8 18//8 20//8 
f 38//148 2//148 1//148 
f 43//149 83//149 98//149 
f 114//150 119//150 38//150 
f 157//8 96//8 143//8 
f 81//8 18//8 141//8 
f 125//151 108//151 107//151 
f 53//152 52//152 89//152 
f 77//4 132//4 106//4 
f 82//153 51//153 53//153 
f 45//154 55//154 67//154 
f 117//3 59//3 41//3 
f 158//6 17//6 16//6 
f 105//8 49//8 48//8 
f 151//8 48//8 133//8 
f 135//155 60//155 149//155 
f 28//156 64//156 50//156 
f 101//8 37//8 132//8 
f 24//157 25//157 70//157 
f 77//8 106//8 153//8 
f 9//8 11//8 126//8 
f 82//158 53//158 134//158 
f 149//159 136//159 135//159 
f 148//160 41//160 59//160 
f 62//161 91//161 63//161 
f 6//6 78//6 7//6 
f 5//3 111//3 78//3 
f 157//4 143//4 144//4 
f 117//3 99//3 98//3 
f 115//162 88//162 5//162 
f 81//8 120//8 139//8 
f 146//163 86//163 88//163 
f 51//60 64//60 66//60 
f 122//164 90//164 147//164 
f 145//165 109//165 108//165 
f 63//166 113//166 101//166 
f 116//167 23//167 9//167 
f 36//3 47//3 34//3 
f 109//168 155//168 107//168 
f 72//169 79//169 73//169 
f 156//3 47//3 46//3 
f 108//170 131//170 145//170 
f 22//3 31//3 21//3 
f 134//171 90//171 122//171 
f 13//3 12//3 150//3 
f 94//8 96//8 157//8 
f 75//172 107//172 155//172 
f 129//59 131//59 108//59 
f 16//6 156//6 158//6 
f 152//8 77//8 153//8 
f 158//3 21//3 31//3 
f 153//4 121//4 120//4 
f 69//173 68//173 109//173 
f 47//3 36//3 21//3 
f 48//8 50//8 133//8 
f 144//174 67//174 57//174 
f 74//175 73//175 43//175 
f 58//176 116//176 148//176 
f 118//177 146//177 115//177 
f 136//178 26//178 54//178 
f 145//66 131//66 130//66 
# 304 faces

